<?xml version="1.0" encoding="UTF-8"?>
<!DOCTYPE svg  PUBLIC '-//W3C//DTD SVG 1.1//EN'  'http://www.w3.org/Graphics/SVG/1.1/DTD/svg11.dtd'>
<svg width="784.55pt" height="337.01pt" version="1.1" viewBox="0 0 784.55 337.01" xmlns="http://www.w3.org/2000/svg" xmlns:xlink="http://www.w3.org/1999/xlink">
<defs><style type="text/css">*{stroke-linejoin: round; stroke-linecap: butt}</style></defs>
<path d="m-0 337.01h784.55v-337.01h-784.55z" fill="#fff"/><path d="m56.467 245.95h720.88v-223.63h-720.88z" fill="#fff"/>
<path d="m89.234 245.95h21.14v-36.265h-21.14z" clip-path="url(#a)" fill="#1f77b4"/><path d="m115.66 245.95h21.14v-65.147h-21.14z" clip-path="url(#a)" fill="#1f77b4"/><path d="m142.08 245.95h21.14v-113.41h-21.14z" clip-path="url(#a)" fill="#1f77b4"/><path d="m168.51 245.95h21.14v-145.13h-21.14z" clip-path="url(#a)" fill="#1f77b4"/><path d="m194.94 245.95h21.14v-170.07h-21.14z" clip-path="url(#a)" fill="#1f77b4"/><path d="m221.36 245.95h21.14v-182.96h-21.14z" clip-path="url(#a)" fill="#1f77b4"/><path d="m247.79 245.95h21.14v-186.77h-21.14z" clip-path="url(#a)" fill="#1f77b4"/><path d="m274.21 245.95h21.14v-189.8h-21.14z" clip-path="url(#a)" fill="#1f77b4"/><path d="m300.64 245.95h21.14v-193.01h-21.14z" clip-path="url(#a)" fill="#1f77b4"/><path d="m327.06 245.95h21.14v-197.59h-21.14z" clip-path="url(#a)" fill="#1f77b4"/><path d="m353.49 245.95h21.14v-197.32h-21.14z" clip-path="url(#a)" fill="#1f77b4"/><path d="m379.91 245.95h21.14v-199.63h-21.14z" clip-path="url(#a)" fill="#1f77b4"/><path d="m406.34 245.95h21.14v-198.66h-21.14z" clip-path="url(#a)" fill="#1f77b4"/><path d="m432.76 245.95h21.14v-200.69h-21.14z" clip-path="url(#a)" fill="#1f77b4"/><path d="m459.19 245.95h21.14v-198.57h-21.14z" clip-path="url(#a)" fill="#1f77b4"/><path d="m485.61 245.95h21.14v-206.29h-21.14z" clip-path="url(#a)" fill="#1f77b4"/><path d="m512.04 245.95h21.14v-207.25h-21.14z" clip-path="url(#a)" fill="#1f77b4"/><path d="m538.46 245.95h21.14v-205.36h-21.14z" clip-path="url(#a)" fill="#1f77b4"/><path d="m564.89 245.95h21.14v-212.98h-21.14z" clip-path="url(#a)" fill="#1f77b4"/><path d="m591.31 245.95h21.14v-212.02h-21.14z" clip-path="url(#a)" fill="#1f77b4"/><path d="m617.74 245.95h21.14v-212.73h-21.14z" clip-path="url(#a)" fill="#1f77b4"/><path d="m644.16 245.95h21.14v-212.19h-21.14z" clip-path="url(#a)" fill="#1f77b4"/><path d="m670.59 245.95h21.14v-212.23h-21.14z" clip-path="url(#a)" fill="#1f77b4"/><path d="m697.01 245.95h21.14v-211.7h-21.14z" clip-path="url(#a)" fill="#1f77b4"/><path d="m723.44 245.95h21.14v-151.98h-21.14z" clip-path="url(#a)" fill="#1f77b4"/>
<defs><path id="b" d="m0 0v3.5" stroke="#000" stroke-width=".8"/></defs>
<g font-family="DejaVu Sans,Arial,sans-serif" font-size="10px">
<use x="99.804548" y="245.945725" stroke="#000" stroke-width=".8" xlink:href="#b"/><text transform="translate(66.844 301.94) rotate(-55)">1.01 - 2.00</text><use x="126.229768" y="245.945725" stroke="#000" stroke-width=".8" xlink:href="#b"/><text transform="translate(93.269 301.94) rotate(-55)">2.01 - 3.00</text><use x="152.654988" y="245.945725" stroke="#000" stroke-width=".8" xlink:href="#b"/><text transform="translate(119.69 301.94) rotate(-55)">3.01 - 4.00</text><use x="179.080208" y="245.945725" stroke="#000" stroke-width=".8" xlink:href="#b"/><text transform="translate(146.12 301.94) rotate(-55)">4.01 - 5.00</text><use x="205.505428" y="245.945725" stroke="#000" stroke-width=".8" xlink:href="#b"/><text transform="translate(172.54 301.94) rotate(-55)">5.01 - 6.00</text><use x="231.930648" y="245.945725" stroke="#000" stroke-width=".8" xlink:href="#b"/><text transform="translate(198.97 301.94) rotate(-55)">6.01 - 7.00</text><use x="258.355868" y="245.945725" stroke="#000" stroke-width=".8" xlink:href="#b"/><text transform="translate(225.4 301.94) rotate(-55)">7.01 - 8.00</text><use x="284.781088" y="245.945725" stroke="#000" stroke-width=".8" xlink:href="#b"/><text transform="translate(251.82 301.94) rotate(-55)">8.01 - 9.00</text><use x="311.206308" y="245.945725" stroke="#000" stroke-width=".8" xlink:href="#b"/><text transform="translate(274.6 307.16) rotate(-55)">9.01 - 10.00</text><use x="337.631528" y="245.945725" stroke="#000" stroke-width=".8" xlink:href="#b"/><text transform="translate(297.37 312.37) rotate(-55)">10.01 - 11.00</text><use x="364.056748" y="245.945725" stroke="#000" stroke-width=".8" xlink:href="#b"/><text transform="translate(323.8 312.37) rotate(-55)">11.01 - 12.00</text><use x="390.481968" y="245.945725" stroke="#000" stroke-width=".8" xlink:href="#b"/><text transform="translate(350.22 312.37) rotate(-55)">12.01 - 13.00</text><use x="416.907187" y="245.945725" stroke="#000" stroke-width=".8" xlink:href="#b"/><text transform="translate(376.65 312.37) rotate(-55)">13.01 - 14.00</text><use x="443.332407" y="245.945725" stroke="#000" stroke-width=".8" xlink:href="#b"/><text transform="translate(403.07 312.37) rotate(-55)">14.01 - 15.00</text><use x="469.757627" y="245.945725" stroke="#000" stroke-width=".8" xlink:href="#b"/><text transform="translate(429.5 312.37) rotate(-55)">15.01 - 16.00</text><use x="496.182847" y="245.945725" stroke="#000" stroke-width=".8" xlink:href="#b"/><text transform="translate(455.92 312.37) rotate(-55)">16.01 - 17.00</text><use x="522.608067" y="245.945725" stroke="#000" stroke-width=".8" xlink:href="#b"/><text transform="translate(482.35 312.37) rotate(-55)">17.01 - 18.00</text><use x="549.033287" y="245.945725" stroke="#000" stroke-width=".8" xlink:href="#b"/><text transform="translate(508.77 312.37) rotate(-55)">18.01 - 19.00</text><use x="575.458507" y="245.945725" stroke="#000" stroke-width=".8" xlink:href="#b"/><text transform="translate(535.2 312.37) rotate(-55)">19.01 - 20.00</text><use x="601.883727" y="245.945725" stroke="#000" stroke-width=".8" xlink:href="#b"/><text transform="translate(561.62 312.37) rotate(-55)">20.01 - 21.00</text><use x="628.308947" y="245.945725" stroke="#000" stroke-width=".8" xlink:href="#b"/><text transform="translate(588.05 312.37) rotate(-55)">21.01 - 22.00</text><use x="654.734167" y="245.945725" stroke="#000" stroke-width=".8" xlink:href="#b"/><text transform="translate(614.47 312.37) rotate(-55)">22.01 - 23.00</text><use x="681.159387" y="245.945725" stroke="#000" stroke-width=".8" xlink:href="#b"/><text transform="translate(640.9 312.37) rotate(-55)">23.01 - 24.00</text><use x="707.584607" y="245.945725" stroke="#000" stroke-width=".8" xlink:href="#b"/><text transform="translate(665.53 314.94) rotate(-55)">24.01 AND UP</text><use x="734.009827" y="245.945725" stroke="#000" stroke-width=".8" xlink:href="#b"/><text transform="translate(705.68 295.33) rotate(-55)">Unknown</text>
<text x="416.907187" y="327.726493" text-anchor="middle">Premium jump D11 / D10</text></g>
<defs><path id="c" d="m0 0h-3.5" stroke="#000" stroke-width=".8"/></defs>
<g font-family="DejaVu Sans,Arial,sans-serif" font-size="10px"><use x="56.467188" y="245.945725" stroke="#000" stroke-width=".8" xlink:href="#c"/><text x="49.467188" y="249.744943" text-anchor="end">0%</text><use x="56.467188" y="201.367696" stroke="#000" stroke-width=".8" xlink:href="#c"/><text x="49.467188" y="205.166914" text-anchor="end">20%</text><use x="56.467188" y="156.789667" stroke="#000" stroke-width=".8" xlink:href="#c"/><text x="49.467188" y="160.588885" text-anchor="end">40%</text><use x="56.467188" y="112.211637" stroke="#000" stroke-width=".8" xlink:href="#c"/><text x="49.467188" y="116.010856" text-anchor="end">60%</text><use x="56.467188" y="67.633608" stroke="#000" stroke-width=".8" xlink:href="#c"/><text x="49.467188" y="71.432827" text-anchor="end">80%</text><use x="56.467188" y="23.055579" stroke="#000" stroke-width=".8" xlink:href="#c"/><text x="49.467188" y="26.854798" text-anchor="end">100%</text><text transform="rotate(-90 14.798 134.13)" x="14.798438" y="134.131925" text-anchor="middle">Lapse rate</text></g>
<path d="m56.467 245.95v-223.63m720.88 223.63v-223.63m-720.88 223.63h720.88m-720.88-223.63h720.88" fill="none" stroke="#000" stroke-width=".8"/><text x="416.907187" y="16.318125" font-family="DejaVu Sans,Arial,sans-serif" font-size="12px" text-anchor="middle">Duration 10 lapse rate by premium jump</text><defs><clipPath id="a"><rect x="56.467" y="22.318" width="720.88" height="223.63"/></clipPath></defs></svg>
